Coordinates
version=1
nRows=6
nColumns=63
inDegrees=yes

Units are S.I. units (second, meters, Newtons, ...)
If the header above contains a line with 'inDegrees', this indicates whether rotational values are in degrees (yes) or radians (no).

endheader
time	pelvis_tilt	pelvis_list	pelvis_rotation	pelvis_tx	pelvis_ty	pelvis_tz	hip_flexion_r	hip_adduction_r	hip_rotation_r	knee_angle_r	knee_angle_r_beta	ankle_angle_r	subtalar_angle_r	mtp_angle_r	hip_flexion_l	hip_adduction_l	hip_rotation_l	knee_angle_l	knee_angle_l_beta	ankle_angle_l	subtalar_angle_l	mtp_angle_l	L5_S1_Flex_Ext	L5_S1_Lat_Bending	L5_S1_axial_rotation	L4_L5_Flex_Ext	L4_L5_Lat_Bending	L4_L5_axial_rotation	L3_L4_Flex_Ext	L3_L4_Lat_Bending	L3_L4_axial_rotation	L2_L3_Flex_Ext	L2_L3_Lat_Bending	L2_L3_axial_rotation	L1_L2_Flex_Ext	L1_L2_Lat_Bending	L1_L2_axial_rotation	L1_T12_Flex_Ext	L1_T12_Lat_Bending	L1_T12_axial_rotation	Abs_r3	Abs_r2	Abs_r1	Abs_t1	Abs_t2	neck_flexion	neck_bending	neck_rotation	arm_flex_r	arm_add_r	arm_rot_r	elbow_flex_r	pro_sup_r	wrist_flex_r	wrist_dev_r	arm_flex_l	arm_add_l	arm_rot_l	elbow_flex_l	pro_sup_l	wrist_flex_l	wrist_dev_l
      2.11666667	      1.57363959	     -1.77939181	    111.88671884	      0.36050544	      0.47260533	      0.97734016	      6.75756204	     -2.74366285	    -15.90682548	      8.90333156	      0.15539245	     19.29045151	     15.34245410	      0.00000000	      9.47759703	      2.09912919	     -3.23146276	     11.24402227	      0.19624521	     21.36438208	      3.06917476	      0.00000000	      0.06169438	     -0.31364048	     -0.16583466	      0.11457263	     -0.41714184	     -0.17619933	      0.10135770	     -0.76258547	     -0.17619933	      0.07051051	     -0.76258547	     -0.14510533	      0.05728940	     -0.63957567	     -0.13474067	      0.03525217	     -0.48582911	     -0.12437600	      0.44067678	     -3.54796388	     -0.92232265	      0.00000000	      0.00000000	     22.12472481	      1.12199546	     -5.47354818	     11.22710915	    -12.44025881	    112.72454381	      3.12473277	      5.50152810	      3.47837354	     -6.33618771	     10.91309081	    -13.11723703	    160.96691723	      7.20935463	     23.48123030	     -8.71439283	     -6.04998124
      2.13333333	      1.63705819	     -1.80340835	    111.94887528	      0.36058809	      0.47239125	      0.97684485	      6.81970051	     -2.66202435	    -15.90344663	      8.88345901	      0.15504561	     19.34555844	     15.33957924	      0.00000000	      9.46396603	      2.01352777	     -3.26148471	     11.24432968	      0.19625058	     21.37652119	      3.02872641	      0.00000000	      0.06152867	     -0.31747434	     -0.15786537	      0.11426490	     -0.42224087	     -0.16773195	      0.10108546	     -0.77190711	     -0.16773195	      0.07032112	     -0.77190711	     -0.13813220	      0.05713553	     -0.64739368	     -0.12826561	      0.03515748	     -0.49176776	     -0.11839902	      0.43949317	     -3.59133325	     -0.87799981	      0.00000000	      0.00000000	     22.19207494	      1.12669916	     -5.53039375	     11.09766333	    -12.41551694	    112.65468648	      3.16394966	      5.43194551	      3.51049738	     -6.33509983	     11.15268626	    -13.54344866	    161.13573184	      7.05407882	     23.59089823	     -8.75293694	     -5.84383802
      2.15000000	      1.67861750	     -1.94572366	    111.71286315	      0.36104826	      0.47218876	      0.97663251	      7.02379505	     -2.58995246	    -15.29482836	      8.75715606	      0.15284121	     19.34096035	     15.03193104	      0.00000000	      9.57748131	      1.96631904	     -3.62639932	     11.27398633	      0.19676818	     21.30855666	      2.83755638	      0.00000000	      0.06187771	     -0.33591789	      0.04434513	      0.11491309	     -0.44677079	      0.04711670	      0.10165888	     -0.81675075	      0.04711670	      0.07072003	     -0.81675075	      0.03880199	      0.05745964	     -0.68500376	      0.03603042	      0.03535692	     -0.52033681	      0.03325885	      0.44198627	     -3.79997033	      0.24663431	      0.00000000	      0.00000000	     22.88649883	      0.72926318	     -7.71978682	     10.49134868	    -12.41431542	    109.91565157	      3.20853037	      4.45050277	      4.07087195	     -6.36376208	     12.01973504	    -13.35903734	    165.67419304	      6.69870622	     25.23357785	     -9.43972769	     -2.26603037
      2.16666667	      1.72998476	     -2.04592517	    111.58575567	      0.36115739	      0.47205029	      0.97645453	      7.16506715	     -2.53062618	    -14.95581029	      8.65993437	      0.15114437	     19.46231202	     15.01582630	      0.00000000	      9.66032124	      1.91117440	     -4.02471636	     11.33253896	      0.19779012	     21.35424939	      2.81863900	      0.00000000	      0.06832962	     -0.33768551	      0.12759288	      0.12689494	     -0.44912173	      0.13556744	      0.11225874	     -0.82104855	      0.13556744	      0.07809392	     -0.82104855	      0.11164377	      0.06345089	     -0.68860829	      0.10366922	      0.03904355	     -0.52307486	      0.09569466	      0.48807166	     -3.81996604	      0.70963332	      0.00000000	      0.00000000	     23.24739430	      0.65795267	     -8.21985964	     10.19043153	    -12.42308748	    109.34193904	      3.26059962	      4.28292269	      3.90874266	     -6.47150723	     12.38461974	    -13.77481686	    163.26813438	      6.86024407	     21.85020438	     -9.91440432	     -0.49170921
      2.18333333	      1.82644666	     -2.04702493	    111.40635029	      0.36131590	      0.47205813	      0.97635953	      7.18319712	     -2.37361230	    -14.53714332	      8.49588608	      0.14828119	     19.57994621	     15.04139621	      0.00000000	      9.61696845	      1.76271838	     -4.57732913	     11.28415280	      0.19694562	     21.48293964	      2.95757449	      0.00000000	      0.06709961	     -0.32077583	      0.19142265	      0.12461068	     -0.42663185	      0.20338656	      0.11023794	     -0.77993435	      0.20338656	      0.07668814	     -0.77993435	      0.16749481	      0.06230870	     -0.65412607	      0.15553090	      0.03834072	     -0.49688176	      0.14356698	      0.47928578	     -3.62868035	      1.06463533	      0.00000000	      0.00000000	     23.48025787	      0.11972417	     -8.22809103	      9.93607220	    -12.48310453	    108.86175027	      3.37461805	      4.26817479	      3.53945982	     -6.76858444	     12.57329744	    -14.23389391	    159.48483188	      7.13046780	     17.43826145	    -11.28433331	      0.51959640
      2.20000000	      1.86236142	     -2.02393084	    111.45005597	      0.36132638	      0.47214455	      0.97656598	      7.17509942	     -2.29543216	    -14.22750398	      8.45875751	      0.14763317	     19.74814589	     14.77945742	      0.00000000	      9.59865969	      1.64598654	     -5.28878551	     11.31261106	      0.19744231	     21.72669755	      3.76560467	      0.00000000	      0.06187140	     -0.30763552	      0.19637798	      0.11490137	     -0.40915524	      0.20865161	      0.10164852	     -0.74798500	      0.20865161	      0.07071282	     -0.74798500	      0.17183073	      0.05745378	     -0.62733035	      0.15955711	      0.03535332	     -0.47652742	      0.14728349	      0.44194119	     -3.48003450	      1.09219542	      0.00000000	      0.00000000	     23.44024748	     -0.00450828	     -7.57314811	      9.77326560	    -12.59776066	    108.40515397	      3.75330165	      4.71319373	      2.84887681	     -7.00163621	     12.81217909	    -14.91627705	    155.01238536	      7.95696130	     13.15857886	    -13.71301746	     -0.37539015
